HIERARCHY
ROOT Root
{
  OFFSET 0.0 0.0 0.0
  CHANNELS 6 Xposition Yposition Zposition Zrotation Yrotation Xrotation
  JOINT Hips
  {
    OFFSET 0.0 100.0 0.0
    CHANNELS 6 Xposition Yposition Zposition Zrotation Yrotation Xrotation
    JOINT Spine1
    {
      OFFSET -0.013727 5.003763 -0.053727
      CHANNELS 3 Zrotation Yrotation Xrotation
      JOINT Spine2
      {
        OFFSET -0.0 7.125301 -0.029825
        CHANNELS 3 Zrotation Yrotation Xrotation
        JOINT Chest
        {
          OFFSET -1e-06 7.550063 -0.815971
          CHANNELS 3 Zrotation Yrotation Xrotation
          JOINT Neck1
          {
            OFFSET -0.181677 26.311295 -0.553348
            CHANNELS 3 Zrotation Yrotation Xrotation
            JOINT Neck2
            {
              OFFSET -3e-06 7.709397 2.302585
              CHANNELS 3 Zrotation Yrotation Xrotation
              JOINT Head
              {
                OFFSET -5e-06 6.128916 1.953709
                CHANNELS 3 Zrotation Yrotation Xrotation
                JOINT HeadEnd
                {
                  OFFSET 0.003598 16.065403 -1.835379
                  CHANNELS 3 Zrotation Yrotation Xrotation
                }
                JOINT Jaw
                {
                  OFFSET 0.002637 0.475592 3.094941
                  CHANNELS 3 Zrotation Yrotation Xrotation
                }
                JOINT LeftEye
                {
                  OFFSET 3.206381 5.380205 7.586883
                  CHANNELS 3 Zrotation Yrotation Xrotation
                }
                JOINT RightEye
                {
                  OFFSET -3.22244 5.361869 7.558234
                  CHANNELS 3 Zrotation Yrotation Xrotation
                }
              }
            }
          }
          JOINT LeftShoulder
          {
            OFFSET 1.621652 23.237164 5.113413
            CHANNELS 3 Zrotation Yrotation Xrotation
            JOINT LeftArm
            {
              OFFSET 14.919846 2e-06 -5.502326
              CHANNELS 3 Zrotation Yrotation Xrotation
              JOINT LeftForeArm
              {
                OFFSET 28.739307 0.0 -0.002588
                CHANNELS 3 Zrotation Yrotation Xrotation
                JOINT LeftHand
                {
                  OFFSET 27.093981 -1e-06 0.002609
                  CHANNELS 3 Zrotation Yrotation Xrotation
                  JOINT LeftHandThumb1
                  {
                    OFFSET 2.276482 -1.392045 3.191413
                    CHANNELS 3 Zrotation Yrotation Xrotation
                    JOINT LeftHandThumb2
                    {
                      OFFSET 4.012836 -1.828127 1.641654
                      CHANNELS 3 Zrotation Yrotation Xrotation
                      JOINT LeftHandThumb3
                      {
                        OFFSET 2.798515 0.0 -3e-06
                        CHANNELS 3 Zrotation Yrotation Xrotation
                        JOINT LeftHandThumbEnd
                        {
                          OFFSET 3.180793 -4e-06 4e-06
                          CHANNELS 3 Zrotation Yrotation Xrotation
                        }
                      }
                    }
                  }
                  JOINT LeftHandIndex1
                  {
                    OFFSET 3.247555 -0.531998 2.296169
                    CHANNELS 3 Zrotation Yrotation Xrotation
                    JOINT LeftHandIndex2
                    {
                      OFFSET 6.364578 0.01206 0.1786
                      CHANNELS 3 Zrotation Yrotation Xrotation
                      JOINT LeftHandIndex3
                      {
                        OFFSET 3.662364 0.0 0.0
                        CHANNELS 3 Zrotation Yrotation Xrotation
                        JOINT LeftHandIndex4
                        {
                          OFFSET 2.329242 4e-06 4e-06
                          CHANNELS 3 Zrotation Yrotation Xrotation
                          JOINT LeftHandIndexEnd
                          {
                            OFFSET 2.759615 -0.180537 -0.113024
                            CHANNELS 3 Zrotation Yrotation Xrotation
                          }
                        }
                      }
                    }
                  }
                  JOINT LeftHandMiddle1
                  {
                    OFFSET 3.163495 0.240981 1.000332
                    CHANNELS 3 Zrotation Yrotation Xrotation
                    JOINT LeftHandMiddle2
                    {
                      OFFSET 6.19078 -0.259278 -1.002548
                      CHANNELS 3 Zrotation Yrotation Xrotation
                      JOINT LeftHandMiddle3
                      {
                        OFFSET 4.35652 -4e-06 -1e-06
                        CHANNELS 3 Zrotation Yrotation Xrotation
                        JOINT LeftHandMiddle4
                        {
                          OFFSET 2.996877 -8e-06 0.0
                          CHANNELS 3 Zrotation Yrotation Xrotation
                          JOINT LeftHandMiddleEnd
                          {
                            OFFSET 2.304287 -0.294569 -0.031741
                            CHANNELS 3 Zrotation Yrotation Xrotation
                          }
                        }
                      }
                    }
                  }
                  JOINT LeftHandRing1
                  {
                    OFFSET 2.882643 -0.053652 -0.322543
                    CHANNELS 3 Zrotation Yrotation Xrotation
                    JOINT LeftHandRing2
                    {
                      OFFSET 5.854541 -0.486202 -1.373841
                      CHANNELS 3 Zrotation Yrotation Xrotation
                      JOINT LeftHandRing3
                      {
                        OFFSET 4.350578 0.0 3e-06
                        CHANNELS 3 Zrotation Yrotation Xrotation
                        JOINT LeftHandRing4
                        {
                          OFFSET 2.651321 7e-06 2e-06
                          CHANNELS 3 Zrotation Yrotation Xrotation
                          JOINT LeftHandRingEnd
                          {
                            OFFSET 1.936105 0.077687 -7.1e-05
                            CHANNELS 3 Zrotation Yrotation Xrotation
                          }
                        }
                      }
                    }
                  }
                  JOINT LeftHandPinky1
                  {
                    OFFSET 2.8655 -0.310005 -1.600378
                    CHANNELS 3 Zrotation Yrotation Xrotation
                    JOINT LeftHandPinky2
                    {
                      OFFSET 5.087849 -1.331141 -1.77123
                      CHANNELS 3 Zrotation Yrotation Xrotation
                      JOINT LeftHandPinky3
                      {
                        OFFSET 3.070974 4e-06 0.0
                        CHANNELS 3 Zrotation Yrotation Xrotation
                        JOINT LeftHandPinky4
                        {
                          OFFSET 1.549672 0.0 1e-06
                          CHANNELS 3 Zrotation Yrotation Xrotation
                          JOINT LeftHandPinkyEnd
                          {
                            OFFSET 1.944893 -0.157802 0.057219
                            CHANNELS 3 Zrotation Yrotation Xrotation
                          }
                        }
                      }
                    }
                  }
                }
              }
            }
          }
          JOINT RightShoulder
          {
            OFFSET -1.380118 23.180309 5.214158
            CHANNELS 3 Zrotation Yrotation Xrotation
            JOINT RightArm
            {
              OFFSET -15.037196 1.2e-05 -5.545604
              CHANNELS 3 Zrotation Yrotation Xrotation
              JOINT RightForeArm
              {
                OFFSET -28.736639 2e-06 -0.002597
                CHANNELS 3 Zrotation Yrotation Xrotation
                JOINT RightHand
                {
                  OFFSET -27.133619 -0.0 0.002613
                  CHANNELS 3 Zrotation Yrotation Xrotation
                  JOINT RightHandThumb1
                  {
                    OFFSET -2.274032 -1.383988 3.163127
                    CHANNELS 3 Zrotation Yrotation Xrotation
                    JOINT RightHandThumb2
                    {
                      OFFSET -4.011429 -1.827466 1.640914
                      CHANNELS 3 Zrotation Yrotation Xrotation
                      JOINT RightHandThumb3
                      {
                        OFFSET -2.794935 -4e-06 -3e-06
                        CHANNELS 3 Zrotation Yrotation Xrotation
                        JOINT RightHandThumbEnd
                        {
                          OFFSET -3.183852 4e-06 1e-06
                          CHANNELS 3 Zrotation Yrotation Xrotation
                        }
                      }
                    }
                  }
                  JOINT RightHandIndex1
                  {
                    OFFSET -3.253266 -0.520057 2.282866
                    CHANNELS 3 Zrotation Yrotation Xrotation
                    JOINT RightHandIndex2
                    {
                      OFFSET -6.341917 0.012471 0.178266
                      CHANNELS 3 Zrotation Yrotation Xrotation
                      JOINT RightHandIndex3
                      {
                        OFFSET -3.654871 -8e-06 -0.0
                        CHANNELS 3 Zrotation Yrotation Xrotation
                        JOINT RightHandIndex4
                        {
                          OFFSET -2.327586 0.0 1e-06
                          CHANNELS 3 Zrotation Yrotation Xrotation
                          JOINT RightHandIndexEnd
                          {
                            OFFSET -2.76179 -0.180656 -0.113078
                            CHANNELS 3 Zrotation Yrotation Xrotation
                          }
                        }
                      }
                    }
                  }
                  JOINT RightHandMiddle1
                  {
                    OFFSET -3.168106 0.246593 1.00103
                    CHANNELS 3 Zrotation Yrotation Xrotation
                    JOINT RightHandMiddle2
                    {
                      OFFSET -6.180828 -0.258836 -1.000895
                      CHANNELS 3 Zrotation Yrotation Xrotation
                      JOINT RightHandMiddle3
                      {
                        OFFSET -4.348901 0.0 -0.0
                        CHANNELS 3 Zrotation Yrotation Xrotation
                        JOINT RightHandMiddle4
                        {
                          OFFSET -3.00024 -4e-06 -2e-06
                          CHANNELS 3 Zrotation Yrotation Xrotation
                          JOINT RightHandMiddleEnd
                          {
                            OFFSET -2.30252 -0.29437 -0.031706
                            CHANNELS 3 Zrotation Yrotation Xrotation
                          }
                        }
                      }
                    }
                  }
                  JOINT RightHandRing1
                  {
                    OFFSET -2.88569 -0.067952 -0.308858
                    CHANNELS 3 Zrotation Yrotation Xrotation
                    JOINT RightHandRing2
                    {
                      OFFSET -5.854198 -0.48613 -1.373731
                      CHANNELS 3 Zrotation Yrotation Xrotation
                      JOINT RightHandRing3
                      {
                        OFFSET -4.33881 -4e-06 -0.0
                        CHANNELS 3 Zrotation Yrotation Xrotation
                        JOINT RightHandRing4
                        {
                          OFFSET -2.654903 -4e-06 4e-06
                          CHANNELS 3 Zrotation Yrotation Xrotation
                          JOINT RightHandRingEnd
                          {
                            OFFSET -1.933568 0.077527 -5.2e-05
                            CHANNELS 3 Zrotation Yrotation Xrotation
                          }
                        }
                      }
                    }
                  }
                  JOINT RightHandPinky1
                  {
                    OFFSET -2.866425 -0.342796 -1.584145
                    CHANNELS 3 Zrotation Yrotation Xrotation
                    JOINT RightHandPinky2
                    {
                      OFFSET -5.091371 -1.332055 -1.772385
                      CHANNELS 3 Zrotation Yrotation Xrotation
                      JOINT RightHandPinky3
                      {
                        OFFSET -3.062664 -4e-06 1e-06
                        CHANNELS 3 Zrotation Yrotation Xrotation
                        JOINT RightHandPinky4
                        {
                          OFFSET -1.546529 4e-06 -2e-06
                          CHANNELS 3 Zrotation Yrotation Xrotation
                          JOINT RightHandPinkyEnd
                          {
                            OFFSET -1.945119 -0.157718 0.057211
                            CHANNELS 3 Zrotation Yrotation Xrotation
                          }
                        }
                      }
                    }
                  }
                }
              }
            }
          }
        }
      }
    }
    JOINT LeftLeg
    {
      OFFSET 10.043214 -8.434526 2.595655
      CHANNELS 3 Zrotation Yrotation Xrotation
      JOINT LeftShin
      {
        OFFSET -1e-06 -43.221752 -0.802913
        CHANNELS 3 Zrotation Yrotation Xrotation
        JOINT LeftFoot
        {
          OFFSET 1e-06 -42.155094 -3.481523
          CHANNELS 3 Zrotation Yrotation Xrotation
          JOINT LeftToeBase
          {
            OFFSET 0.0 -5.059472 13.231529
            CHANNELS 3 Zrotation Yrotation Xrotation
            JOINT LeftToeEnd
            {
              OFFSET -0.009607 -1.647619 6.513017
              CHANNELS 3 Zrotation Yrotation Xrotation
            }
          }
        }
      }
    }
    JOINT RightLeg
    {
      OFFSET -10.047278 -8.29526 2.620317
      CHANNELS 3 Zrotation Yrotation Xrotation
      JOINT RightShin
      {
        OFFSET 1e-06 -43.362206 -0.805556
        CHANNELS 3 Zrotation Yrotation Xrotation
        JOINT RightFoot
        {
          OFFSET 2e-06 -42.117393 -3.478398
          CHANNELS 3 Zrotation Yrotation Xrotation
          JOINT RightToeBase
          {
            OFFSET -0.0 -5.079609 13.284196
            CHANNELS 3 Zrotation Yrotation Xrotation
            JOINT RightToeEnd
            {
              OFFSET 0.009532 -1.634378 6.460591
              CHANNELS 3 Zrotation Yrotation Xrotation
            }
          }
        }
      }
    }
  }
}
MOTION
Frames: 5
Frame Time: 0.03333333333333333
0.0 0.0 0.0 0.0 -0.0 0.0 4.870019 97.479019 486.992584 -3.420699 0.343643 -5.844798 2.923699 0.369048 0.318973 -0.267795 1.433045 -4.775905 0.287677 -0.38708 10.988978 1.10244 2.312456 9.36825 -0.205849 1.5428 -3.657323 0.466952 0.326842 -10.136344 7.7e-05 -2.3e-05 6e-06 0.011316 0.006995 0.059349 0.68116 -3.743208 -10.637406 -0.667787 3.758915 -10.653512 -12.562312 -4.206301 16.103352 -63.936863 -3.724025 9.238914 0.162914 -21.227842 0.038758 -2.898894 -2.079793 1.345031 -5.882107 9.861287 0.70259 -10.936872 -0.360575 7.156202 -0.0 8.774828 -1e-06 -16.458069 18.296629 5.899529 -1.844032 2.498505 -2.507278 -10.1636 4.678945 4.621107 -20.976027 -3e-06 1e-06 -21.226288 2.451697 -3.594001 -1e-06 -5e-06 -0.0 -1.362682 2.240799 -0.746323 -21.334915 0.584909 3.00832 -13.821215 -3e-06 -0.0 -23.887171 -0.249078 -0.839484 -60.849392 2.606657 -1.190035 -0.294025 1.679688 0.833256 -14.218207 0.093215 1.300579 -34.212048 -0.287564 0.96717 -20.033211 0.964535 1.212843 -0.0 -1e-06 -1e-06 -3.440388 0.788234 0.501655 -15.928185 -3.16731 2.999706 -6.338826 -1e-06 2e-06 -18.123444 3.648184 -4.905672 -3e-06 1e-06 -3e-06 10.130474 12.778379 16.496693 60.868332 14.330871 9.214104 0.132801 31.54496 0.153013 -0.517838 3.234723 -8.817839 2.243542 -5.255037 -3.180159 14.282896 -0.826597 6.952502 -2e-06 -12.690612 -1e-06 15.834238 -17.542755 2.769206 1.665667 -1.955922 -2.878299 4.727799 -4.170588 4.993925 11.020531 1e-06 -2e-06 12.109057 -3.735718 -2.866787 -1e-06 -1e-06 -1e-06 1.291987 -1.928553 -1.498089 14.800132 0.567468 3.865606 14.242577 -1.341736 -6.660665 19.631973 0.143927 -0.648247 49.777683 -0.907134 -6.003456 0.353029 -1.51115 -0.03194 20.222801 3.684309 2.316631 18.787283 3e-06 -4e-06 10.751634 -0.479868 1.397906 0.0 0.0 0.0 3.273808 0.305948 -0.580111 21.486816 11.830379 2.266131 8.162928 -0.0 -3e-06 18.399088 -3.798986 -4.940581 2e-06 1e-06 -0.0 2.575909 7.833341 -25.210714 0.223118 0.606599 17.102285 -3.168004 1.584845 10.444233 1.773909 -1.867629 -4.629016 0.0 0.0 2e-06 6.360314 -5.36165 13.431997 -0.067221 0.070082 5.595652 -4.107087 -2.520681 -12.670841 -1.427202 0.965878 -0.689109 0.0 0.0 -1e-06 
0.0 0.0 0.0 0.0 -0.0 0.0 5.057636 96.223373 491.646057 -4.407497 -0.621647 -5.940047 3.70268 0.268544 0.233032 -0.091502 1.4424 -4.802351 0.81491 -0.456336 11.133737 0.154935 2.767346 9.67619 -0.290668 1.740116 -3.624578 0.232989 0.71948 -10.22206 7.7e-05 -2.2e-05 6e-06 0.008979 0.006556 0.060899 0.68258 -3.758554 -10.701983 -0.675531 3.772039 -10.708602 -12.822227 -3.471298 16.183775 -63.850643 -2.726722 7.689447 0.285429 -19.84067 -0.016357 -2.324527 -1.55256 1.609924 -5.882107 9.861285 0.702591 -10.936873 -0.360575 7.156209 1e-06 8.774828 0.0 -16.418964 18.429447 5.953897 -1.844033 2.498504 -2.507278 -10.163602 4.678944 4.62111 -20.976028 -5e-06 3e-06 -21.226292 2.451694 -3.593999 -1e-06 -6e-06 -0.0 -1.362682 2.240798 -0.746323 -21.334919 0.584909 3.008324 -13.821217 -3e-06 2e-06 -23.887175 -0.249079 -0.839483 -60.938007 2.685652 -1.136015 -0.294024 1.679687 0.833256 -14.218212 0.093214 1.300581 -34.212048 -0.287565 0.967171 -20.033216 0.964537 1.212845 -0.0 -0.0 -0.0 -3.440389 0.788232 0.501655 -15.928189 -3.16731 2.999708 -6.338828 -2e-06 2e-06 -18.123447 3.648181 -4.905671 -2e-06 0.0 -2e-06 9.51119 12.953864 16.440945 60.188808 15.130322 9.439184 0.040243 33.982433 0.064316 -0.746846 3.385207 -9.316998 2.243541 -5.255035 -3.180156 14.282889 -0.826595 6.952502 -2e-06 -12.690603 -1e-06 15.871401 -17.524614 2.788785 1.665666 -1.955923 -2.8783 4.727798 -4.170586 4.993926 11.020526 3e-06 -1e-06 12.109051 -3.735715 -2.866784 0.0 -0.0 1e-06 1.291985 -1.928548 -1.498089 14.800129 0.567467 3.865608 14.242572 -1.341736 -6.660659 19.631969 0.143928 -0.648245 49.89463 -1.009361 -6.00466 0.353028 -1.511151 -0.031939 20.222788 3.684309 2.316631 18.787273 6e-06 -0.0 10.751628 -0.479868 1.397907 2e-06 0.0 -0.0 3.273807 0.305946 -0.58011 21.486814 11.830376 2.266134 8.162928 1e-06 1e-06 18.399084 -3.798987 -4.940573 2e-06 -0.0 -1e-06 4.008568 7.557516 -24.482317 -0.017389 0.4025 3.26295 -5.445681 2.696322 8.772216 1.635729 -2.043666 -4.770639 0.0 0.0 3e-06 6.621243 -6.001904 16.695425 -0.068967 0.012285 5.885466 -3.726761 -1.827143 -15.379505 -1.430457 0.854046 -1.309253 -0.0 -0.0 -1e-06 
0.0 0.0 0.0 0.0 -0.0 0.0 5.407624 94.914268 496.402679 -4.683914 -1.438392 -5.67227 3.906816 0.176851 0.019375 -0.005784 1.493743 -4.846534 1.242219 -0.645035 11.350034 -0.509777 3.116633 9.495238 -0.267951 2.051332 -3.537899 -0.148154 1.043149 -10.332605 7.7e-05 -2.3e-05 6e-06 0.010228 0.064406 0.072296 0.655902 -3.707007 -10.68586 -0.648034 3.835482 -10.68403 -13.605424 -3.01167 15.805874 -63.369423 -1.669311 6.1297 0.433169 -18.007568 -0.058893 -1.876581 -0.985539 1.297939 -5.88211 9.86129 0.702591 -10.936877 -0.360575 7.15621 1e-06 8.77483 -2e-06 -16.544037 18.361238 5.684041 -1.844033 2.498505 -2.507279 -10.163604 4.678948 4.621112 -20.976034 -3e-06 3e-06 -21.226299 2.451699 -3.594002 -1e-06 -5e-06 0.0 -1.362682 2.240799 -0.746322 -21.334927 0.58491 3.008326 -13.821221 -2e-06 2e-06 -23.887182 -0.249078 -0.839483 -60.913071 2.701669 -1.306247 -0.294025 1.679688 0.833257 -14.218216 0.093215 1.300582 -34.212067 -0.287564 0.967171 -20.033226 0.964537 1.212844 0.0 -1e-06 -0.0 -3.44039 0.788234 0.501656 -15.928194 -3.16731 2.999709 -6.338829 -1e-06 1e-06 -18.123455 3.648185 -4.905673 -2e-06 0.0 -3e-06 10.083054 12.911135 16.247663 58.803532 15.709155 8.469601 0.29679 35.4907 0.271884 -1.570672 3.507444 -9.772919 2.243543 -5.255038 -3.18016 14.282898 -0.826596 6.952504 -1e-06 -12.69061 -0.0 15.874222 -17.625397 2.722841 1.665667 -1.955924 -2.878299 4.727801 -4.170589 4.993925 11.020532 2e-06 -2e-06 12.109058 -3.735721 -2.866788 -0.0 -0.0 -0.0 1.291986 -1.92855 -1.49809 14.800136 0.567468 3.865609 14.242579 -1.34174 -6.660661 19.631977 0.143923 -0.648247 49.910263 -1.038166 -6.157077 0.35303 -1.511152 -0.03194 20.222803 3.684309 2.316629 18.787287 6e-06 -3e-06 10.751635 -0.479869 1.397906 2e-06 1e-06 1e-06 3.273808 0.305948 -0.580111 21.486828 11.830378 2.266131 8.162933 2e-06 -1e-06 18.399097 -3.798988 -4.940581 2e-06 -0.0 -1e-06 4.590455 7.139173 -26.345802 -0.120069 0.202392 -3.654164 -7.021965 4.659629 5.756384 1.445548 -2.199297 -5.119998 0.0 0.0 1e-06 5.710827 -6.865306 19.977278 -0.042406 -0.080511 5.622236 -3.050739 -0.472984 -17.741034 -1.440796 0.705272 -2.22008 -0.0 -0.0 -1e-06 
0.0 0.0 0.0 0.0 -0.0 0.0 5.9754 93.755417 501.351746 -4.429035 -2.152712 -5.4625 3.858878 0.167504 -0.145986 0.013569 1.55034 -4.900193 1.282001 -0.843715 11.615245 -0.980681 3.395647 9.182572 -0.113645 2.192805 -3.522875 -0.414424 1.33631 -10.529267 7.7e-05 -2.2e-05 6e-06 0.008416 0.062397 0.068217 0.643176 -3.695397 -10.640944 -0.640637 3.821666 -10.632116 -14.027628 -2.761825 15.382459 -63.234875 -0.850571 4.720977 0.472799 -15.936005 -0.082141 -1.245898 -0.522207 0.791001 -5.88211 9.861288 0.70259 -10.93688 -0.360576 7.156211 2e-06 8.774828 0.0 -16.621845 18.210539 5.557754 -1.844033 2.498505 -2.507279 -10.163608 4.678946 4.62111 -20.97604 -5e-06 4e-06 -21.226301 2.451697 -3.593999 1e-06 -7e-06 -1e-06 -1.362682 2.240799 -0.746324 -21.334929 0.584909 3.008326 -13.821224 -3e-06 3e-06 -23.887188 -0.249078 -0.839481 -60.870667 2.68713 -1.324918 -0.294025 1.679688 0.833255 -14.218219 0.093214 1.300581 -34.212074 -0.287564 0.967174 -20.03323 0.964538 1.212846 -0.0 -0.0 -1e-06 -3.44039 0.788233 0.501656 -15.9282 -3.167312 2.999711 -6.338831 -1e-06 2e-06 -18.123459 3.648183 -4.905671 -3e-06 0.0 -2e-06 10.750951 12.865008 16.213657 58.291275 16.182692 6.744185 0.380065 35.984463 0.388613 -2.388527 3.483462 -10.514811 2.243543 -5.255041 -3.18016 14.282898 -0.826594 6.952505 -5e-06 -12.69061 1e-06 15.797051 -17.534819 2.622724 1.665667 -1.955922 -2.878302 4.727801 -4.170588 4.993926 11.020531 4e-06 -3e-06 12.109058 -3.735715 -2.866786 -1e-06 0.0 -1e-06 1.291986 -1.92855 -1.498091 14.800139 0.56747 3.865608 14.242581 -1.341733 -6.660662 19.631985 0.143929 -0.648244 49.759491 -0.788075 -6.119988 0.353029 -1.51115 -0.031941 20.222803 3.684313 2.316628 18.787285 8e-06 -4e-06 10.751636 -0.479867 1.397906 -0.0 2e-06 -1e-06 3.273809 0.305947 -0.580112 21.486828 11.830386 2.266132 8.16293 4e-06 -1e-06 18.399092 -3.798984 -4.940577 2e-06 0.0 -1e-06 4.337557 7.393526 -28.763552 -0.067851 0.134984 -4.551293 -7.299485 6.153913 3.414885 1.394555 -2.195068 -5.122585 -0.0 0.0 1e-06 4.215272 -7.482281 24.132891 -0.114558 -0.022906 3.877682 -2.164781 0.901603 -18.066603 -1.430658 0.692956 -3.266578 0.0 0.0 -1e-06 
0.0 0.0 0.0 0.0 -0.0 0.0 6.706705 92.771606 506.681244 -3.897428 -2.836177 -5.187249 3.76296 0.188446 -0.404779 0.052437 1.677767 -5.054555 1.048091 -0.93902 11.495954 -1.364798 3.604263 9.079116 0.06044 2.221313 -3.475776 -0.462004 1.704079 -10.322684 7.7e-05 -2.2e-05 6e-06 0.008868 0.074784 0.054482 0.670655 -3.683025 -10.673314 -0.667108 3.834394 -10.664493 -13.9565 -2.477461 15.322524 -63.753445 -0.139714 3.643119 0.484701 -14.249157 -0.078076 -0.549699 0.050094 0.615538 -5.882108 9.861286 0.70259 -10.936873 -0.360576 7.156205 1e-06 8.774826 -1e-06 -16.696865 18.252157 5.632845 -1.844033 2.498504 -2.507277 -10.163602 4.678946 4.621109 -20.976027 -4e-06 3e-06 -21.226288 2.451699 -3.594 -0.0 -6e-06 -0.0 -1.362682 2.240798 -0.746323 -21.334917 0.584909 3.008324 -13.821214 -3e-06 2e-06 -23.887171 -0.24908 -0.839483 -60.895672 2.642678 -1.260395 -0.294024 1.679688 0.833255 -14.21821 0.093215 1.30058 -34.212063 -0.287564 0.967172 -20.033215 0.964535 1.212844 -1e-06 -0.0 0.0 -3.440389 0.788233 0.501656 -15.928189 -3.16731 2.999708 -6.338828 -1e-06 1e-06 -18.123449 3.648182 -4.905669 -4e-06 0.0 -2e-06 10.737008 12.751197 16.238394 59.267548 16.102581 5.481761 0.275484 35.458317 0.405943 -2.685232 3.275728 -11.727615 2.243544 -5.255039 -3.18016 14.282896 -0.826595 6.952504 -2e-06 -12.69061 1e-06 15.922088 -17.460541 2.535481 1.665668 -1.955923 -2.878302 4.727801 -4.17059 4.993927 11.020535 3e-06 -2e-06 12.109059 -3.735719 -2.866787 -1e-06 1e-06 -1e-06 1.291987 -1.928549 -1.498091 14.800136 0.567469 3.865607 14.242582 -1.341735 -6.660665 19.631983 0.143928 -0.648247 49.771164 -0.621131 -6.091331 0.353029 -1.51115 -0.031939 20.222801 3.68431 2.316628 18.787283 7e-06 -3e-06 10.751634 -0.479867 1.397906 2e-06 -0.0 -1e-06 3.273808 0.305947 -0.580112 21.486824 11.830383 2.266131 8.16293 2e-06 -2e-06 18.399096 -3.798988 -4.940582 4e-06 -1e-06 0.0 3.847356 7.761778 -29.010391 -0.057099 0.137675 -3.790849 -6.665305 6.050129 2.169816 1.465004 -2.17767 -5.313573 0.0 0.0 2e-06 2.742828 -7.703573 27.520044 -0.194572 0.089975 3.284952 -1.58504 1.856851 -16.937752 -1.413035 0.707081 -5.033751 0.0 -0.0 -1e-06 
